<svg width="12" height="12" viewBox="0 0 12 12" fill="none" xmlns="http://www.w3.org/2000/svg">
<mask id="path-1-outside-1_397_207" maskUnits="userSpaceOnUse" x="-0.333313" y="-0.333344" width="12" height="12" fill="black">
<rect fill="white" x="-0.333313" y="-0.333344" width="12" height="12"/>
<path d="M1.74402 11.3333C1.43691 11.3333 1.18069 11.2307 0.975354 11.0253C0.77002 10.82 0.667131 10.5635 0.666687 10.256V1.74399C0.666687 1.43688 0.769576 1.18066 0.975354 0.975323C1.18113 0.76999 1.43735 0.667101 1.74402 0.666656H10.2567C10.5634 0.666656 10.8196 0.769545 11.0254 0.975323C11.2311 1.1811 11.3338 1.43732 11.3334 1.74399V10.2567C11.3334 10.5633 11.2307 10.8195 11.0254 11.0253C10.82 11.2311 10.5636 11.3338 10.256 11.3333H1.74402ZM1.74402 10.6667H5.66669V1.33332H1.74402C1.64135 1.33332 1.54713 1.37599 1.46135 1.46132C1.37558 1.54666 1.33291 1.64088 1.33335 1.74399V10.2567C1.33335 10.3589 1.37602 10.4529 1.46135 10.5387C1.54669 10.6244 1.64069 10.6671 1.74335 10.6667M6.33335 10.6667H10.2567C10.3589 10.6667 10.4529 10.624 10.5387 10.5387C10.6245 10.4533 10.6671 10.3591 10.6667 10.256V5.99999H6.33335V10.6667ZM6.33335 5.33332H10.6667V1.74399C10.6667 1.64132 10.624 1.5471 10.5387 1.46132C10.4534 1.37555 10.3591 1.33288 10.256 1.33332H6.33335V5.33332Z"/>
</mask>
<path d="M1.74402 11.3333C1.43691 11.3333 1.18069 11.2307 0.975354 11.0253C0.77002 10.82 0.667131 10.5635 0.666687 10.256V1.74399C0.666687 1.43688 0.769576 1.18066 0.975354 0.975323C1.18113 0.76999 1.43735 0.667101 1.74402 0.666656H10.2567C10.5634 0.666656 10.8196 0.769545 11.0254 0.975323C11.2311 1.1811 11.3338 1.43732 11.3334 1.74399V10.2567C11.3334 10.5633 11.2307 10.8195 11.0254 11.0253C10.82 11.2311 10.5636 11.3338 10.256 11.3333H1.74402ZM1.74402 10.6667H5.66669V1.33332H1.74402C1.64135 1.33332 1.54713 1.37599 1.46135 1.46132C1.37558 1.54666 1.33291 1.64088 1.33335 1.74399V10.2567C1.33335 10.3589 1.37602 10.4529 1.46135 10.5387C1.54669 10.6244 1.64069 10.6671 1.74335 10.6667M6.33335 10.6667H10.2567C10.3589 10.6667 10.4529 10.624 10.5387 10.5387C10.6245 10.4533 10.6671 10.3591 10.6667 10.256V5.99999H6.33335V10.6667ZM6.33335 5.33332H10.6667V1.74399C10.6667 1.64132 10.624 1.5471 10.5387 1.46132C10.4534 1.37555 10.3591 1.33288 10.256 1.33332H6.33335V5.33332Z" fill="#5A5A62"/>
<path d="M0.666687 10.256H0.466687L0.466687 10.2563L0.666687 10.256ZM1.74402 0.666656V0.466656L1.74373 0.466657L1.74402 0.666656ZM11.3334 1.74399L11.1334 1.7437V1.74399H11.3334ZM10.256 11.3333L10.2563 11.1333H10.256V11.3333ZM5.66669 10.6667V10.8667H5.86669V10.6667H5.66669ZM5.66669 1.33332H5.86669V1.13332H5.66669V1.33332ZM1.33335 1.74399H1.53336L1.53335 1.74313L1.33335 1.74399ZM6.33335 10.6667H6.13335V10.8667H6.33335V10.6667ZM10.6667 10.256H10.4667L10.4667 10.2569L10.6667 10.256ZM10.6667 5.99999H10.8667V5.79999H10.6667V5.99999ZM6.33335 5.99999V5.79999H6.13335V5.99999H6.33335ZM6.33335 5.33332H6.13335V5.53332H6.33335V5.33332ZM10.6667 5.33332V5.53332H10.8667V5.33332H10.6667ZM10.256 1.33332V1.53333L10.2569 1.53332L10.256 1.33332ZM6.33335 1.33332V1.13332H6.13335V1.33332H6.33335ZM1.74402 11.1333C1.48656 11.1333 1.28227 11.0494 1.11677 10.8839L0.833932 11.1667C1.07911 11.4119 1.38726 11.5333 1.74402 11.5333V11.1333ZM1.11677 10.8839C0.951265 10.7184 0.86706 10.5138 0.866687 10.2557L0.466687 10.2563C0.467203 10.6133 0.588775 10.9216 0.833932 11.1667L1.11677 10.8839ZM0.866687 10.256V1.74399H0.466687V10.256H0.866687ZM0.866687 1.74399C0.866687 1.48666 0.95074 1.28242 1.11662 1.1169L0.834085 0.833749C0.588411 1.07889 0.466687 1.38709 0.466687 1.74399H0.866687ZM1.11662 1.1169C1.28275 0.951125 1.48729 0.867029 1.74431 0.866656L1.74373 0.466657C1.38742 0.467173 1.07951 0.588855 0.834085 0.833749L1.11662 1.1169ZM1.74402 0.866656H10.2567V0.466656H1.74402V0.866656ZM10.2567 0.866656C10.5135 0.866656 10.7178 0.950659 10.8839 1.11674L11.1668 0.833902C10.9213 0.588432 10.6132 0.466656 10.2567 0.466656V0.866656ZM10.8839 1.11674C11.0499 1.28275 11.1337 1.487 11.1334 1.7437L11.5334 1.74428C11.5339 1.38765 11.4123 1.07945 11.1668 0.833902L10.8839 1.11674ZM11.1334 1.74399V10.2567H11.5334V1.74399H11.1334ZM11.1334 10.2567C11.1334 10.5136 11.0495 10.718 10.8838 10.8841L11.1669 11.1666C11.4119 10.9211 11.5334 10.6131 11.5334 10.2567H11.1334ZM10.8838 10.8841C10.7184 11.0498 10.5141 11.1337 10.2563 11.1333L10.2557 11.5333C10.6131 11.5338 10.9216 11.4124 11.1669 11.1666L10.8838 10.8841ZM10.256 11.1333H1.74402V11.5333H10.256V11.1333ZM1.74402 10.8667H5.66669V10.4667H1.74402V10.8667ZM5.86669 10.6667V1.33332H5.46669V10.6667H5.86669ZM5.66669 1.13332H1.74402V1.53332H5.66669V1.13332ZM1.74402 1.13332C1.57914 1.13332 1.43636 1.20408 1.3203 1.31953L1.60241 1.60311C1.6579 1.5479 1.70357 1.53332 1.74402 1.53332V1.13332ZM1.3203 1.31953C1.20369 1.43554 1.13264 1.57896 1.13336 1.74485L1.53335 1.74313C1.53318 1.7028 1.54747 1.65777 1.60241 1.60311L1.3203 1.31953ZM1.13335 1.74399V10.2567H1.53335V1.74399H1.13335ZM1.13335 10.2567C1.13335 10.4213 1.2043 10.5638 1.31957 10.6797L1.60314 10.3976C1.54774 10.3419 1.53335 10.2964 1.53335 10.2567H1.13335ZM1.31957 10.6797C1.43538 10.7961 1.57853 10.8674 1.74422 10.8667L1.74249 10.4667C1.70284 10.4668 1.658 10.4527 1.60314 10.3976L1.31957 10.6797ZM6.33335 10.8667H10.2567V10.4667H6.33335V10.8667ZM10.2567 10.8667C10.4214 10.8667 10.5639 10.7957 10.6797 10.6804L10.3976 10.3969C10.3419 10.4523 10.2965 10.4667 10.2567 10.4667V10.8667ZM10.6797 10.6804C10.7964 10.5644 10.8674 10.421 10.8667 10.2551L10.4667 10.2569C10.4669 10.2972 10.4526 10.3422 10.3976 10.3969L10.6797 10.6804ZM10.8667 10.256V5.99999H10.4667V10.256H10.8667ZM10.6667 5.79999H6.33335V6.19999H10.6667V5.79999ZM6.13335 5.99999V10.6667H6.53335V5.99999H6.13335ZM6.33335 5.53332H10.6667V5.13332H6.33335V5.53332ZM10.8667 5.33332V1.74399H10.4667V5.33332H10.8667ZM10.8667 1.74399C10.8667 1.57911 10.7959 1.43633 10.6805 1.32027L10.3969 1.60238C10.4521 1.65787 10.4667 1.70354 10.4667 1.74399H10.8667ZM10.6805 1.32027C10.5645 1.20366 10.421 1.13261 10.2552 1.13333L10.2569 1.53332C10.2972 1.53315 10.3422 1.54743 10.3969 1.60238L10.6805 1.32027ZM10.256 1.13332H6.33335V1.53332H10.256V1.13332ZM6.13335 1.33332V5.33332H6.53335V1.33332H6.13335Z" fill="#5A5A62" mask="url(#path-1-outside-1_397_207)"/>
</svg>
