<svg width="14" height="14" viewBox="0 0 14 14" fill="none" xmlns="http://www.w3.org/2000/svg">
<path fill-rule="evenodd" clip-rule="evenodd" d="M7 13.857C7.9011 13.8592 8.79377 13.6834 9.62671 13.3396C10.4596 12.9958 11.2164 12.4908 11.8536 11.8536C12.4908 11.2164 12.9958 10.4596 13.3396 9.62671C13.6834 8.79377 13.8592 7.9011 13.857 7C13.8592 6.09889 13.6834 5.20623 13.3396 4.37328C12.9958 3.54034 12.4908 2.78354 11.8536 2.14636C11.2164 1.50919 10.4596 1.00419 9.62671 0.660387C8.79377 0.316584 7.9011 0.140754 7 0.142996C6.09889 0.140754 5.20623 0.316584 4.37328 0.660387C3.54034 1.00419 2.78354 1.50919 2.14636 2.14636C1.50919 2.78354 1.00419 3.54034 0.660387 4.37328C0.316584 5.20623 0.140754 6.09889 0.142996 7C0.140754 7.9011 0.316584 8.79377 0.660387 9.62671C1.00419 10.4596 1.50919 11.2164 2.14636 11.8536C2.78354 12.4908 3.54034 12.9958 4.37328 13.3396C5.20623 13.6834 6.09889 13.8592 7 13.857ZM8.886 8.084C8.886 7.086 8.286 6.743 7.086 6.601C6.229 6.486 6.057 6.258 6.057 5.856C6.057 5.457 6.344 5.2 6.914 5.2C7.429 5.2 7.716 5.371 7.857 5.8C7.887 5.886 7.973 5.941 8.059 5.941H8.513C8.53927 5.94181 8.56544 5.93729 8.58993 5.92773C8.61442 5.91817 8.63672 5.90375 8.6555 5.88535C8.67428 5.86695 8.68914 5.84494 8.69919 5.82065C8.70924 5.79636 8.71428 5.77028 8.714 5.744V5.714C8.599 5.084 8.084 4.484 7.429 4.428V3.798C7.429 3.683 7.343 3.597 7.201 3.571H6.824C6.709 3.571 6.601 3.657 6.572 3.798V4.428C5.714 4.544 5.144 5.2 5.144 5.916C5.144 6.858 5.71399 7.227 6.914 7.373C7.716 7.514 7.973 7.686 7.973 8.144C7.973 8.598 7.57 8.916 7.03 8.916C6.284 8.916 6.027 8.598 5.942 8.17C5.916 8.058 5.83 7.998 5.744 7.998H5.256C5.22962 7.99771 5.20346 8.00277 5.1791 8.01289C5.15474 8.023 5.13268 8.03795 5.11427 8.05684C5.09585 8.07572 5.08146 8.09814 5.07196 8.12275C5.06246 8.14736 5.05805 8.17364 5.059 8.2V8.23C5.17 8.941 5.629 9.43 6.572 9.571V10.206C6.572 10.321 6.657 10.398 6.799 10.428H7.21C7.321 10.428 7.399 10.351 7.429 10.206V9.571C8.286 9.43 8.886 8.856 8.886 8.084ZM4.114 10.22C4.529 10.6 5.014 10.894 5.543 11.085C5.629 11.145 5.714 11.257 5.714 11.342V11.745C5.714 11.801 5.714 11.831 5.684 11.856C5.659 11.972 5.543 12.028 5.427 11.972C4.38721 11.6409 3.4797 10.9876 2.83571 10.1066C2.19172 9.22569 1.84462 8.16273 1.84462 7.0715C1.84462 5.98026 2.19172 4.9173 2.83571 4.03636C3.4797 3.15541 4.38721 2.50213 5.427 2.171C5.457 2.145 5.513 2.145 5.543 2.145C5.659 2.171 5.714 2.256 5.714 2.372V2.771C5.714 2.916 5.659 3.002 5.543 3.058C4.95862 3.26867 4.42781 3.60548 3.9883 4.04447C3.54879 4.48346 3.21136 5.01387 3 5.598C2.70535 6.39165 2.65387 7.25511 2.8521 8.07815C3.05034 8.9012 3.48931 9.64652 4.113 10.219M8.315 2.285C8.34 2.17 8.456 2.114 8.572 2.17C9.35742 2.42564 10.0705 2.86505 10.6519 3.45171C11.2334 4.03836 11.6664 4.75532 11.915 5.543C12.1202 6.18638 12.1966 6.86393 12.1396 7.53685C12.0827 8.20978 11.8936 8.86486 11.5832 9.46462C11.2727 10.0644 10.8471 10.597 10.3306 11.0321C9.81404 11.4671 9.21679 11.796 8.573 12C8.543 12.026 8.487 12.026 8.457 12.026C8.341 12 8.286 11.915 8.286 11.799V11.4C8.286 11.255 8.341 11.169 8.457 11.113C9.04137 10.9023 9.57218 10.5655 10.0117 10.1265C10.4512 9.68753 10.7886 9.15713 11 8.573C11.196 8.04608 11.2856 7.48556 11.2637 6.92381C11.2418 6.36206 11.1089 5.81021 10.8725 5.30013C10.6362 4.79005 10.3011 4.33185 9.88669 3.95199C9.47226 3.57213 8.98668 3.27814 8.458 3.087C8.372 3.027 8.287 2.915 8.287 2.8V2.4C8.287 2.34 8.287 2.314 8.317 2.284" fill="#2775CA"/>
</svg>
