<svg width="11" height="12" viewBox="0 0 11 12" fill="none" xmlns="http://www.w3.org/2000/svg">
<path d="M7.66642 0.583344C8.00879 0.583353 8.33915 0.693847 8.59433 0.893703C8.84951 1.09356 9.01162 1.36875 9.04966 1.66668H9.83408C10.1058 1.66669 10.3675 1.75614 10.5674 1.9173C10.7672 2.07845 10.8906 2.29951 10.913 2.53659L10.9167 2.61459V4.23959C10.9167 4.68925 10.7202 5.12188 10.3675 5.44872C10.0148 5.77556 9.53269 5.97184 9.01997 5.9973L8.89006 6.00055C8.68375 6.56328 8.29915 7.06314 7.78101 7.44192C7.26288 7.8207 6.63254 8.06284 5.96335 8.14014V8.97918H7.0478C7.56123 8.97929 8.05517 9.15139 8.42831 9.46019C8.80146 9.76899 9.02554 10.1911 9.05461 10.6399L9.05832 10.7396V11.0104C9.0583 11.1087 9.01761 11.2036 8.94379 11.2776C8.86997 11.3516 8.76803 11.3997 8.65684 11.4129L8.59436 11.4167H2.40565C2.29342 11.4168 2.18495 11.3813 2.10032 11.3168C2.0157 11.2522 1.96065 11.163 1.94539 11.0657L1.94168 11.0104V10.7396C1.94164 10.29 2.13803 9.85748 2.49059 9.53065C2.84315 9.20382 3.32515 9.00748 3.83776 8.98188L3.95221 8.97918H5.0348V8.14014C4.36583 8.06264 3.73575 7.82042 3.21785 7.44165C2.69996 7.06288 2.31554 6.56313 2.10933 6.00055L2.09386 6.00001C1.56064 6.00001 1.04925 5.81454 0.672203 5.4844C0.295157 5.15425 0.083334 4.70649 0.083334 4.23959V2.61459C0.083334 2.09134 0.568335 1.66668 1.16592 1.66668H1.95034C1.98839 1.36866 2.15059 1.09339 2.4059 0.893523C2.66122 0.693654 2.99172 0.583219 3.3342 0.583344H7.66642ZM7.0478 9.79168H3.95221C3.7078 9.79157 3.47054 9.86388 3.27903 9.99685C3.08752 10.1298 2.95304 10.3156 2.89745 10.524L2.88013 10.6042H8.11863C8.08376 10.3928 7.96838 10.1979 7.7912 10.0511C7.61402 9.90436 7.38542 9.81427 7.14245 9.79547L7.0478 9.79168ZM7.66642 1.39584H3.33358C3.21053 1.39584 3.09252 1.43864 3.00551 1.51483C2.9185 1.59102 2.86961 1.69435 2.86961 1.80209V5.05155C2.88021 5.6562 3.16196 6.23295 3.65404 6.65726C4.14613 7.08157 4.80906 7.3194 5.49969 7.3194C6.19033 7.3194 6.85326 7.08157 7.34534 6.65726C7.83742 6.23295 8.11918 5.6562 8.12977 5.05155V1.80209C8.12977 1.69435 8.08089 1.59102 7.99388 1.51483C7.90687 1.43864 7.78947 1.39584 7.66642 1.39584ZM9.83346 2.47918H9.0577V5.1783C9.29966 5.14819 9.52286 5.04728 9.69101 4.89199C9.85915 4.73671 9.96234 4.53617 9.98378 4.32301L9.98811 4.23959V2.61459C9.98806 2.58409 9.97623 2.55449 9.95456 2.5306C9.93289 2.50671 9.90265 2.48992 9.86872 2.48297L9.83346 2.47918ZM1.94168 2.47918H1.16592C1.12491 2.47918 1.08557 2.49344 1.05657 2.51884C1.02756 2.54424 1.01127 2.57868 1.01127 2.61459V4.23959C1.01123 4.46803 1.10541 4.68879 1.27647 4.86126C1.44754 5.03374 1.68398 5.14632 1.9423 5.1783L1.94168 2.47918Z" fill="#64758B"/>
</svg>
